<svg viewBox="53.5 187.25 1979.5000000000007 1738.7499999999998" xmlns="http://www.w3.org/2000/svg" xmlns:blush="http://design.blush" overflow="visible" xmlns:xlink="http://www.w3.org/1999/xlink" width="1979.5000000000007px" height="1738.7499999999998px"><g id="Master/Combo/Desserts" stroke="none" stroke-width="1" fill="none" fill-rule="evenodd" blush:i="0"><g id="Backgrounds/Bubble" transform="translate(166.000000, 166.000000) scale(1.1243686868686869 1.1243686868686869)" blush:width="1781" blush:height="1781" blush:component="Backgrounds/Bubble" blush:i="0.0" blush:value="Purple"><g id="Backgrounds/Bubble/Purple" stroke="none" stroke-width="1" fill="none" fill-rule="evenodd" blush:i="0.0.0"><path d="M258.484283,60.810137 C258.484283,60.810137 -77,193.685932 -77,432.839064 C-77,671.992196 268.685781,649.613251 59.8269424,1080.06818 C-149.031896,1510.52311 864.670748,1664.84593 1140.70671,1448.58948 C1416.74267,1232.33302 1067.16012,956.446836 1394.72142,879.563706 C1722.28271,802.680575 1763.92346,136.424825 1421.44209,136.424825 C1078.96072,136.424825 899.225862,547.2189 736.53165,246.222738 C573.837437,-54.7734248 258.484283,60.810137 258.484283,60.810137 Z" id="Path-3" fill="#F2F0FE" blush:i="0.0.0.0"/></g></g><g id="Beverages" transform="translate(220.000000, 13.000000) scale(1 1)" blush:width="803" blush:height="1440" blush:component="Beverages" blush:i="0.1" blush:value="Lemonade"><g id="Beverages/Lemonade" stroke="none" stroke-width="1" fill="none" fill-rule="evenodd" blush:i="0.1.0"><path d="M22,256.031281 L127.686026,1407.27603 L396.760274,1429 L657.616845,1386.75756 L801,243.596791 C578.165933,213.536339 462.249557,198.506113 453.250872,198.506113 C447.28704,198.506113 284.471777,174.867359 169.6807,198.506113 C130.73773,206.52558 81.5108296,225.700636 22,256.031281 Z" id="Glass_color" fill="#FFF" blush:i="0.1.0.0"/><g id="Lemonade" transform="translate(2.000000, 176.000000)" blush:i="0.1.0.1"><path d="M14,75.8535767 L120.228701,1241.01346 L390.684589,1263 L652.880602,1220.24698 L797,63.2687908 C573.021727,32.8449971 456.510145,17.6331003 447.465254,17.6331003 C441.470798,17.6331003 277.819514,-6.2913754 162.439009,17.6331003 C123.296075,25.749499 73.8164051,45.1563245 14,75.8535767 Z" id="Glass_color" fill="#FFF" blush:i="0.1.0.1.0"/><g id="Color" transform="translate(79.000000, 160.000000)" blush:i="0.1.0.1.1"><path d="M243.576355,1049.79052 C194.493518,1043.9759 133.008698,1044.83085 105.281372,1010.18048 C57.6408613,939.755529 58.7600523,785.349426 51.7402843,744.034555 C28.0807548,497.087786 20.1420721,248.744165 0,0 C188.222682,49.1069538 384.013788,39.6352812 577.960333,22.3614276 C645.120209,19.029176 657.126688,-13.4316666 651.927919,51.6599971 C633.196196,249.238954 591.141542,822.621838 552.664933,979.554057 C514.075564,1077.93289 297.969038,1046.35224 243.576355,1049.79052" id="Fill-1" fill="#FFF0BE" blush:i="0.1.0.1.1.0"/><path d="M391.320258,461.536171 C410.705794,498.885723 430.341781,603.463458 452.695743,563.075743 C444.368687,525.470488 423.596428,490.731805 411.524381,452.1071 C583.030824,424.669428 556.262883,391.353937 411.420166,428.721994 C451.791432,366.283206 479.850286,295.108439 497.307858,296.008449 C567.005358,339.891901 584.683124,475.788283 541.923334,533.350197 C501.968926,606.279562 378.834715,651.530692 328,572.195279 C342.450486,532.231494 370.110972,499.561991 391.320258,461.536171" id="Fill-87" fill="#FEC85A" blush:i="0.1.0.1.1.1"/><path d="M300.245755,781.310127 C345.330527,804.360958 403.155953,821.462428 407,848.648216 C391.427155,927.700055 319.264291,962.462954 255.278641,932.107425 C173.032507,902.94244 118.405691,739.471221 152.119681,716 C189.361723,718.687134 227.598813,749.698472 266.225855,763.150955 C177.232889,856.753337 196.392614,900.778272 277.226855,783.669356 C286.68822,803.360429 311.087077,938.119003 332.784848,889.464733 C323.115061,852.300565 309.001173,819.089746 300.267606,781.288267 L300.245755,781.310127 Z" id="Fill-89" fill="#FEC85A" blush:i="0.1.0.1.1.2"/><path d="M116.298327,268.79836 C136.145242,234.413708 224.866589,145.105629 171.935313,157.895349 C143.61623,191.143249 120.888609,227.845061 93.4377766,261.97281 C74.5836279,219.667834 41.5144101,177.780955 49.1149625,154.946846 C105.12718,101.66558 207.227317,117.449139 240.548933,184.321057 C293.820106,290.628366 183.929277,398.443508 166.78134,394.915715 C139.369209,369.646908 131.102325,325.426077 109.444873,292.80784 C246.794949,285.792552 249.88262,248.850628 116.254578,268.756383 L116.298327,268.79836 Z" id="Fill-91" fill="#FEC85A" blush:i="0.1.0.1.1.3"/><path d="M461.042139,90.7363084 C439.22675,116.546143 480.035235,124.106379 484.596144,149.790377 C488.412655,168.078565 464.286428,197.433623 449.862681,191.128392 C430.572501,176.935752 468.288616,164.927627 461.15861,150.040371 C398.894273,99.2780666 454.74768,57.8746161 461.042139,90.7363084" id="Fill-93" fill="#FEC75A" blush:i="0.1.0.1.1.4"/><path d="M157.982782,579.152255 C175.691738,552.316018 148.289406,556.05128 143.984242,535.947279 C133.929286,514.828555 164.513182,466.816284 181.357049,494.250904 C185.097878,509.009907 154.03413,515.30389 167.569713,533.31102 C211.704397,559.172988 168.286113,612.995478 157.982782,579.152255" id="Fill-95" fill="#FEC75A" blush:i="0.1.0.1.1.5"/><path d="M483.577437,836 C462.927072,831.404617 479.487504,815.186013 474.79378,800.895963 C420.793179,753.656431 526.262839,699.889615 481.555239,772.489968 C492.922721,789.801754 513.294801,821.140758 483.577437,836" id="Fill-97" fill="#FEC75A" blush:i="0.1.0.1.1.6"/><path d="M152.976847,953.741088 C153.846496,976.237493 129.940372,971.441963 128,954.978264 C128.20275,942.581255 152.646749,933.912606 152.976847,953.741088" id="Fill-99" fill="#FEC75B" blush:i="0.1.0.1.1.7"/><path d="M54.9300704,44.015084 C71.5074492,43.2318255 66.4816897,73.2231032 48.1448713,70.868197 C33.2828613,67.3982591 40.6867458,44.8838512 54.9300704,44.015084" id="Fill-101" fill="#FEC65B" blush:i="0.1.0.1.1.8"/><path d="M371.854407,233.367494 C374.183358,249.068036 347.797558,253.698641 348.001173,233.797668 C349.995252,221.249525 370.302895,212.925066 371.854407,233.367494" id="Fill-103" fill="#FEC75B" blush:i="0.1.0.1.1.9"/><path d="M591.402537,165 C611.039445,167.160675 600.627786,192.976552 582.554031,187.144405 C571.492986,181.478077 574.425964,165.199318 591.402537,165" id="Fill-105" fill="#FEC75B" blush:i="0.1.0.1.1.10"/><path d="M454.988224,981.723675 C455.585076,996.360216 433.295918,997.585593 433,980.438814 C433.106999,964.306668 454.692306,962.97252 454.988224,981.723675" id="Fill-107" fill="#FEC65B" blush:i="0.1.0.1.1.11"/><path d="M302,76.2145584 C302.028906,90.8237983 279.841569,92.8145644 278,76.7186801 C279.560739,63.4263294 300.849416,56.6566957 302,76.2145584" id="Fill-109" fill="#FEC75B" blush:i="0.1.0.1.1.12"/><path d="M66,440.796884 C66.3271877,427.950757 86.720766,422.88727 88.9975879,439.650274 C89.2640604,451.925651 67.3660931,456.931211 66,440.796884" id="Fill-111" fill="#FEC65B" blush:i="0.1.0.1.1.13"/><path d="M334.008734,352.180268 C333.521737,339.621004 353.555801,337.663147 355,352.084228 C354.946262,362.624979 335.439499,367.701591 334.008734,352.180268" id="Fill-113" fill="#FEC35D" blush:i="0.1.0.1.1.14"/></g><g id="Outline" transform="translate(0.000080, 0.054126)" fill="#000" blush:i="0.1.0.1.2"><path d="M653.249031,1207.54909 C693.034185,830.314027 734.935427,452.184272 775.576772,73.1463675 C733.041377,51.3507883 668.401436,49.2839081 618.308341,39.1513182 C337.642349,-4.01267377 -17.4668928,45.7656711 23.0365198,104.077254 C62.0108987,478.885538 90.2113935,854.126033 134.218631,1225.16213 C338.949345,1251.00234 548.553118,1237.70132 653.249031,1207.54909 M379.885059,1.13686838e-12 C500.924307,0.116041278 625.781935,13.0319401 745.21309,39.2690413 C763.164518,45.0425153 792.587903,44.1478202 797.942044,61.2647497 C797.33985,102.319818 789.481055,138.575149 786.274962,180.17847 C749.033151,520.899208 714.068911,855.817881 675.869983,1196.98092 C696.453905,1267.56765 362.061471,1256.41256 342.163848,1261.94554 C64.2110924,1248.90855 117.594385,1256.17879 104.132497,1173.87693 C92.9448145,1055.67796 81.1061577,936.271486 69.5517766,815.667599 C16.104564,232.383591 -8.04542125,82.7744301 2.37353875,65.9282636 C114.132612,6.52353795 255.395812,4.37761518 379.885059,1.13686838e-12" id="Fill-119" blush:i="0.1.0.1.2.0"/><path d="M431.125725,127.479761 C398.182272,134.376235 -46.442513,113.050034 73.4717244,80.9458743 C551.391445,150.893654 749.637407,60.3273931 736.37863,99.0729768 C676.705724,140.522762 452.23651,122.657466 431.137497,128.945874 C431.132452,128.457733 431.129089,127.967903 431.125725,127.479761" id="Fill-122" blush:i="0.1.0.1.2.1"/></g></g></g></g><g id="Desserts" transform="translate(248.000000, 213.000000) scale(1 1)" blush:width="1797" blush:height="1734" blush:component="Desserts" blush:i="0.2" blush:value="Donuts"><g id="Desserts/Donuts" stroke="none" stroke-width="1" fill="none" fill-rule="evenodd" blush:i="0.2.0"><g id="Donuts" transform="translate(149.000000, 663.000000)" blush:i="0.2.0.0"><g id="Plate" transform="translate(0.000000, 569.000000)" blush:i="0.2.0.0.0"><path d="M870.75,110.019457 C1058.53036,99.6571502 1322.78961,148.475208 1309.57636,105.329539 C1434.61348,48.4781146 1516.21887,54.3265559 1548.92143,183.726313 C1550.70108,228.97926 1521.91377,265.173639 1496.68308,299.213748 C1404.49143,319.216535 1320.54013,338.232613 1222.41898,343.706052 C1116.12758,348.945447 1008.43134,376.982859 895.903048,371.224843 C751.419122,352.538555 -58.63516,348.203421 36.7895392,127.585 C42.201316,75.1617945 154.910265,4.45921821 194.744934,27.4726621 C232.293012,74.8107285 291.315624,91.2363646 337.484256,141.287214 C467.11613,182.069388 598.867416,192.822116 737.055129,208.60945 C769.38675,213.332724 818.183256,112.920254 870.75,110.019457 Z" id="Fill-1" fill="#BAFFB9" blush:i="0.2.0.0.0.0"/><path d="M784.403528,350.682607 C1425.59373,348.356573 1549.06322,297.082325 1536.75824,178.433181 C1509.07404,45.6756078 1415.15468,110.160986 1397.39894,90.1560178 C1378.51776,71.809451 1400.58011,47.4007726 1424.88531,46.3432412 C1516.88261,33.7409925 1581.10749,106.646564 1582.46016,188.271427 C1611.19762,444.984495 866.79583,385.6212 748.825217,392.740843 C-288.206779,389.140964 -13.2253799,-15.4609211 201.754877,0.677114249 C278.586814,55.19339 95.0787538,49.2781578 77.464696,84.6253424 C-109.585423,342.542821 676.732955,345.616605 784.408875,348.738459 C784.406201,349.390069 784.406201,350.036338 784.403528,350.682607" id="Fill-1" fill="#000" blush:i="0.2.0.0.0.1"/></g><g id="Group-66" transform="translate(181.000000, 0.000000)" blush:i="0.2.0.0.1"><path d="M463.041092,311.396366 C551.43251,319.365463 633.881949,301.009234 709.697969,353.561364 C789.844443,404.618761 797.320814,618.619009 759.743373,617.152425 C557.487434,525.844189 645.349942,653.479236 518.87972,675.396366 C494.037453,673.451241 482.78984,662.264667 467.330226,640.173011 C350.171033,467.997154 297.549944,704.055278 226.469326,635.570583 C155.928638,523.541567 200.478332,495.009327 56.3667397,566.559493 C11.4534201,555.040755 50.7553295,489.309071 67.2534815,463.290573 C149.810356,329.75541 321.488655,317.276777 463.041092,311.396366" id="Fill-6" fill="#FF7A95" blush:i="0.2.0.0.1.0"/><path d="M904.26506,311 C1146.03986,320.980542 1363.87444,384.578004 1285.89627,647.246975 C1201.83787,703.621749 1144.37635,550.235547 1035.04802,626.877216 C1021.49163,632.965625 1010.61121,637.102407 991.62014,634.883891 C895.941982,601.672872 944.514882,518.54802 815.334747,561.133521 C780.486512,557.488816 801.168686,491.072337 789.314437,468.470162 C754.162742,334.925501 686.256685,335.856833 904.26506,311" id="Fill-10" fill="#FFB78E" blush:i="0.2.0.0.1.1"/><path d="M308.01935,318.278476 C347.400964,-128.177804 1118.46293,-74.0725453 1079.59862,295.901755 C1077.35976,335.374921 1068.68802,322.668104 1041.55475,318.184724 C882.092591,284.139159 810.104336,303.177621 707.116965,364.813218 C603.142273,275.061905 380.180039,319.591012 308.01935,318.278476" id="Path" fill="#6E4F2F" blush:i="0.2.0.0.1.2"/><path d="M753.378381,694.710898 C866.041778,794.597833 1224.38014,830.505931 1266.69106,680.182521 C1183.19996,696.653538 1144.78384,616.724751 1084.59476,632.329997 C928.540479,710.174521 927.43646,588.044767 879.928893,575.448341 C853.83876,573.393472 831.031279,594.973603 801.810864,583.112013 C795.694652,624.313603 782.580083,661.597849 753.378381,694.710898 M749.229622,641.48739 C717.231784,641.278964 681.355178,611.180079 647.595721,609.05039 C581.760905,654.065111 565.502689,729.817357 472.080765,684.567489 C430.333878,664.574603 433.154072,607.137144 380.305513,605.357505 C340.052928,606.423685 329.357577,649.129685 292.973069,666.02557 C166.500078,698.695046 181.234588,553.462046 153.548572,557.192341 C114.210211,565.868751 80.8784622,613.630423 36.0413919,584.333177 C20.5904727,827.831128 691.796577,795.311292 749.229622,641.48739 M908.633386,311.767784 C676.081015,330.89757 776.97712,368.478423 787.498715,425.683407 C814.674155,488.376948 784.953858,568.599669 835.377852,548.857964 C942.072063,507.779292 931.296517,629.591062 1006.82959,623.600144 C1170.20301,537.445292 1223.51136,710.083669 1283.3957,624.129226 C1347.72552,353.295374 1099.90668,323.276652 908.633386,311.767784 M335.01935,289.677275 C508.163205,281.505898 645.788659,269.045751 725.959682,331.464062 C810.961123,256.363816 942.596004,275.1008 1047.77987,290.903784 C1078.33153,300.341751 1072.69114,289.714685 1077.5269,264.161095 C1072.47996,-64.243823 344.190994,-22.7295934 335.01935,289.677275 M461.428185,316.631062 C309.466524,322.64603 159.154209,337.267931 77.3605713,460.821931 C59.5144924,486.252603 26.2549187,546.787062 66.798879,558.843718 C246.446555,467.261767 165.620605,581.006374 241.81128,630.561046 C287.840584,656.844128 307.068691,595.10721 345.220165,578.764456 C463.256633,534.388374 445.897071,666.82721 522.670496,662.084177 C540.401628,661.830325 555.138811,652.325554 567.742805,639.419161 C654.206469,524.210226 662.656358,590.703538 753.67243,606.370243 C772.301747,598.717259 766.875213,568.858866 769.791641,547.647489 C765.936931,299.737849 628.335536,324.211898 461.428185,316.631062 M1105.9026,301.375866 C1443.17103,379.271161 1315.00325,708.181111 1254.45062,760.30103 C1184.95089,821.447407 1077.83164,816.407767 989.210732,813.062259 C730.669807,780.609226 751.448353,708.814407 722.666338,722.594587 C541.40674,838.907111 103.199427,813.863898 26.0597773,678.504423 C-23.4660321,595.475964 2.96359371,492.927587 62.0753887,422.455472 C189.815462,269.390456 307.704905,329.077849 302.414703,274.186931 C350.451557,-119.933708 1194.11986,-67.0442164 1105.9026,301.375866" id="Fill-4" fill="#000" blush:i="0.2.0.0.1.3"/><path d="M749.230157,641.48739 C660.472913,814.873964 7.91483808,807.298472 36.0419265,584.333177 C75.4979069,610.749866 108.720056,574.291308 148.590378,558.424193 C177.562188,545.528489 175.776511,690.366013 278.907386,670.319685 C323.271305,664.756308 338.462927,601.317243 386.801849,605.622046 C417.155688,607.385652 424.62987,634.002751 443.144241,657.78739 C551.474431,771.139193 614.296585,619.239226 643.300473,610.210095 C678.18266,604.173751 709.183406,641.327062 749.230157,641.48739" id="Fill-12" fill="#FDEFC1" blush:i="0.2.0.0.1.4"/><path d="M753.378381,694.710898 C782.580083,661.597849 795.694652,624.313603 801.810864,583.112013 C830.419123,598.829489 873.216565,558.953275 897.042524,585.105423 C1024.2239,757.687685 1053.64481,561.213898 1179.74088,664.139046 C1205.96735,678.421587 1233.1909,685.802013 1266.69106,680.182521 C1206.3603,851.21762 828.406226,771.983587 753.378381,694.710898" id="Fill-14" fill="#FDEFC1" blush:i="0.2.0.0.1.5"/><path d="M447.055088,467.874487 C256.762851,456.445782 260.914283,371.768618 316.566997,397.461159 C357.814,420.468208 403.204417,433.580356 452.393407,431.677798 C494.666908,430.301651 532.636606,421.293897 565.979048,390.195634 C670.79402,389.658536 482.985158,485.972831 447.055088,467.874487" id="Fill-16" fill="#000" blush:i="0.2.0.0.1.6"/><path d="M369.499226,528.62913 C344.082731,515.730752 368.400553,492.990916 392.245224,488.747572 C422.000273,498.466113 386.265344,525.751244 369.499226,528.62913" id="Fill-18" fill="#F33D61" blush:i="0.2.0.0.1.7"/><path d="M378.670068,377.885928 C350.48417,363.63278 382.588934,340.778043 402.581568,339.180108 C430.117886,352.292256 396.331698,372.0206 378.670068,377.885928" id="Fill-20" fill="#FFEA66" blush:i="0.2.0.0.1.8"/><path d="M242.5186,477.013175 C257.247764,480.879749 289.892508,525.453569 249.308451,517.81929 C238.853685,511.026733 210.28285,482.413552 242.5186,477.013175" id="Fill-22" fill="#BAFFB9" blush:i="0.2.0.0.1.9"/><path d="M705.399802,455.96747 C700.096234,452.576536 676.83164,451.62793 677.414391,435.739438 C679.793512,401.52547 760.993706,445.546159 705.399802,455.96747" id="Fill-24" fill="#37C5FF" blush:i="0.2.0.0.1.10"/><path d="M168.041695,429.105338 C167.46429,444.568961 145.808945,481.006141 135.121614,446.300502 C134.234121,429.172141 157.006852,391.636715 168.041695,429.105338" id="Fill-26" fill="#F33D61" blush:i="0.2.0.0.1.11"/><path d="M615.276836,386.927885 C587.91962,372.896525 618.372366,345.14377 642.577915,350.931607 C659.833224,367.907656 633.219149,381.361836 615.276836,386.927885" id="Fill-28" fill="#F33D61" blush:i="0.2.0.0.1.12"/><path d="M302.301895,560.997189 C301.965076,574.833484 281.18653,604.999172 270.603453,574.862877 C267.016059,552.940713 297.313761,523.242648 302.301895,560.997189" id="Fill-30" fill="#FFEA66" blush:i="0.2.0.0.1.13"/><path d="M559.709396,581.943757 C534.522794,578.97502 548.896426,544.78243 570.891264,539.89243 C595.385515,542.022118 575.334072,575.343593 559.709396,581.943757" id="Fill-32" fill="#E2C0FF" blush:i="0.2.0.0.1.14"/><path d="M486.943854,527.217175 C435.696524,509.335274 532.887617,467.61529 511.245637,515.157848 C506.177308,518.359061 497.198132,522.618438 486.943854,527.217175" id="Fill-34" fill="#BAFFB9" blush:i="0.2.0.0.1.15"/><path d="M252.224344,392.676441 C252.176227,408.613031 212.468968,442.786916 215.81043,402.624785 C219.469999,391.778605 241.010398,368.031375 252.224344,392.676441" id="Fill-36" fill="#E2C0FF" blush:i="0.2.0.0.1.16"/><path d="M673.822988,512.199531 C669.642151,539.420531 638.272508,523.609531 634.805408,499.432089 C640.130361,476.569334 664.081959,490.825154 673.822988,512.199531" id="Fill-38" fill="#BAFFB9" blush:i="0.2.0.0.1.17"/><path d="M477.169945,362.184485 C492.054152,365.075731 515.674277,393.090354 490.859245,400.812813 C473.959468,402.693993 452.814698,372.386682 477.169945,362.184485" id="Fill-40" fill="#37C5FF" blush:i="0.2.0.0.1.18"/><path d="M457.90174,567.84212 C459.468217,535.399775 496.106677,552.260923 486.571482,582.231546 C476.309184,596.914907 461.112216,582.835448 457.90174,567.84212" id="Fill-42" fill="#FFEA66" blush:i="0.2.0.0.1.19"/><path d="M692.563777,204.763628 C660.266544,210.6343 530.874453,174.205136 600.847335,147.42771 C769.441456,208.921464 781.540221,123.645743 840.283118,127.720743 C888.344031,168.267661 713.216684,211.363792 692.563777,204.763628" id="Fill-44" fill="#000" blush:i="0.2.0.0.1.20"/><path d="M1062.59164,469.35939 C945.798193,465.733308 880.706518,357.723095 947.562485,374.64303 C1056.78551,490.71239 1128.35428,399.103718 1157.48113,416.811931 C1191.90086,454.11221 1082.49338,469.231128 1062.59164,469.35939" id="Fill-46" fill="#000" blush:i="0.2.0.0.1.21"/><path d="M884.277605,497.403674 C866.837848,497.769756 866.733595,464.571198 890.046305,470.297575 C902.701089,475.85828 900.420875,494.234526 884.277605,497.403674" id="Fill-48" fill="#FFEA66" blush:i="0.2.0.0.1.22"/><path d="M992.04242,545.259405 C992.221522,558.903307 966.478901,566.208913 963.976815,545.831241 C963.859195,532.120536 989.406675,524.81493 992.04242,545.259405" id="Fill-50" fill="#FFEA66" blush:i="0.2.0.0.1.23"/><path d="M1240.89498,563.685085 C1223.69848,564.617659 1219.62189,531.563397 1245.06512,537.607757 C1257.08369,542.230544 1258.08613,561.090446 1240.89498,563.685085" id="Fill-52" fill="#FFEA66" blush:i="0.2.0.0.1.24"/><path d="M1235.14659,609.500321 C1218.18533,609.596307 1218.02762,576.753143 1241.28419,583.353307 C1252.99267,588.807126 1250.83008,607.183372 1235.14659,609.500321" id="Fill-54" fill="#FFEA66" blush:i="0.2.0.0.1.25"/><path d="M1198.72225,553.625377 C1215.21304,553.532056 1217.06554,585.76063 1193.46413,579.90599 C1181.68882,574.938498 1182.62977,555.87017 1198.72225,553.625377" id="Fill-56" fill="#FFEA66" blush:i="0.2.0.0.1.26"/><path d="M1030.04366,550.530857 C1012.86855,550.60821 1012.61727,518.179226 1035.98879,524.530882 C1047.70797,529.891177 1045.85279,548.328882 1030.04366,550.530857" id="Fill-58" fill="#FFEA66" blush:i="0.2.0.0.1.27"/><path d="M848.743165,476.843495 C848.906228,490.319052 825.246006,496.940593 822.519373,477.292413 C822.054241,463.250364 845.709117,457.769823 848.743165,476.843495" id="Fill-60" fill="#FFEA66" blush:i="0.2.0.0.1.28"/><path d="M867.659046,513.945502 C867.947748,527.298141 843.771604,533.826157 841.250805,514.375715 C841.066357,500.57683 864.670443,494.674092 867.659046,513.945502" id="Fill-62" fill="#FFEA66" blush:i="0.2.0.0.1.29"/><path d="M1020.91987,578.801866 C1021.39302,594.484603 990.509892,595.826013 996.692933,573.607243 C1001.48325,562.857259 1019.09677,563.594767 1020.91987,578.801866" id="Fill-64" fill="#FFEA66" blush:i="0.2.0.0.1.30"/></g></g></g></g></g></svg>