<svg viewBox="426.78750000000014 496.3911917098444 1257.9 1100.5958549222798" xmlns="http://www.w3.org/2000/svg" xmlns:blush="http://design.blush" overflow="visible" xmlns:xlink="http://www.w3.org/1999/xlink" width="1257.9px" height="1100.5958549222798px"><g id="Master/Solo/Dish" stroke="none" stroke-width="1" fill="none" fill-rule="evenodd" blush:i="0"><g id="Dishes" transform="translate(-0.000000, 0.000000) scale(1 1)" blush:width="1797" blush:height="1734" blush:component="Dishes" blush:i="0.0" blush:value="Burger"><g id="Dishes/Burger" stroke="none" stroke-width="1" fill="none" fill-rule="evenodd" blush:i="0.0.0"><g id="Burger" transform="translate(432.000000, 506.000000)" blush:i="0.0.0.0"><g id="Color" transform="translate(23.000000, 18.000000)" blush:i="0.0.0.0.0"><path d="M66.8141182,417.304687 C233.4437,-14.3508107 638.26754,-32.9322824 800.580439,22.984375 C801.255077,23.2167873 799.914145,33.3196528 800.580439,33.5542724 C941.987759,80.6509693 1042.61093,200.321193 1087.17536,339.59375 C1096.09609,376.417656 1114.71305,436.512751 1105.22898,473.432357 C952.076425,571.475694 754.632004,548.030323 577.491546,557.339844 C303.360849,555.26897 24.8309759,450.854416 66.8141182,417.304687 Z" id="Fill-1" fill="#FEE966" blush:i="0.0.0.0.0.0"/><path d="M549.456922,755.14351 C572.898608,757.28094 599.95666,762.204213 625.324866,765.93206 C653.58364,794.059917 691.416632,800.927778 730.46139,807.420078 C1120.08535,866.946435 1042.1548,696.854905 1078.06798,779.37713 C1098.38727,826.067336 1083.11789,874.091056 1048.01448,894.876267 C1021.07466,910.827708 982.09799,904.302555 940.715503,907.843352 C828.830639,914.306261 720.730968,916.084458 607.678516,918.14351 C93.5398743,914.0519 36.2618531,910.900547 37.509289,830.671875 C37.6692025,820.387058 43.4869299,805.273624 44.5542062,792.425412 C204.595744,857.247174 450.645883,741.955143 549.456922,757.460897 L549.456922,755.14351 Z" id="Fill-3" fill="#6F4F30" blush:i="0.0.0.0.0.1"/><path d="M905.949574,650.160324 C668.915468,622.898522 688.701132,673.379215 600.890381,654.945298 C413.485981,569.273865 385.947049,671.978238 252.143926,597.411082 C151.718618,553.682694 94.7608866,601.165326 26.2368036,598.396317 C-7.88479723,580.153798 -5.14816482,530.532832 22.4676573,505.200708 C85.4415862,444.895913 98.745908,469.335365 142.988655,487.375502 C199.229276,512.434647 260.687455,526.788158 322.085938,540.007237 C578.65621,588.973996 929.656594,576.951788 1065.4353,505.235222 L1053.03179,505.200708 C1066.13749,502.521122 1092.39992,480.182352 1108.97977,487.375502 C1140.00069,503.227102 1240.28006,566.523682 1162.04282,597.498938 C900.893709,610.732137 1019.40527,625.789902 905.949574,650.160324 Z" id="Fill-5" fill="#BBFEB9" blush:i="0.0.0.0.0.2"/><path d="M14.3652344,894.876267 C25.0481435,891.605227 41.8454613,884.481106 52.2898565,894.876267 C99.3932004,922.370258 155.985819,928.097198 210.365404,932.828831 C434.890247,941.407501 637.304652,933.991164 793.531687,928.529297 C922.294182,924.02762 1018.75089,914.466827 1074.08562,894.876267 C1111.25141,903.238205 1111.91826,947.319022 1093.00977,970.628906 C1020.58316,1049.83043 441.089878,1032.17117 414.10957,1031.65659 C337.290854,1033.12346 -79.0380384,1017.03117 14.3652344,894.876267 Z" id="Fill-7" fill="#FEE966" blush:i="0.0.0.0.0.3"/><path d="M91.4491534,683.69107 C122.313157,685.810578 95.02843,709.390304 110.068924,710.612433 C152.737794,700.5734 202.06779,704.164484 249.695236,702.060665 C197.493659,711.822012 140.887422,693.188852 123.871343,731.032507 C115.151466,734.549855 112.019402,746.222054 122.242545,750.945844 C181.637197,767.956819 387.859082,718.086406 259.959177,730.238672 C279.986493,728.941238 328.192964,686.365949 337.928094,719.760363 C397.707193,712.987663 463.610762,680.89539 526.275564,687.561408 C534.341098,758.269207 371.108193,765.9738 323.027256,789.533131 C259.82109,797.633072 195.616932,790.987449 130.766276,796.094036 C-36.9089494,806.00913 68.0026158,674.204271 91.4491534,683.69107 Z" id="Fill-9" fill="#E1BFFE" blush:i="0.0.0.0.0.4"/><path d="M891.013116,811.468394 C823.7428,812.850545 826.118523,820.771639 812.92965,803.784196 C764.054713,806.550068 716.726978,783.401775 665.60499,787.225047 C646.142575,780.704932 636.445104,757.991208 614.355899,755.00256 C620.874231,750.815316 623.293891,747.610168 620.078662,738.885826 C628.975855,725.340427 656.90865,716.41998 672.496784,706.904941 C682.724634,701.917586 748.061733,692.884182 717.112994,721.873282 C792.033013,723.595872 869.143594,723.020107 945.559033,732.006445 C873.940547,741.294002 666.472741,705.667123 739.246136,756.23881 L739.246136,751.643665 C793.526863,757.366808 850.263342,758.861917 907.186551,758.464999 C890.903274,762.933067 741.69561,764.153628 780.749112,768.400488 C835.580618,776.687122 893.126788,785.510301 941.986033,757.043627 C931.744061,757.93473 920.744179,760.112285 907.723207,758.497945 C924.246567,750.663138 973.038338,761.532089 960.100531,733.72276 C961.413926,740.707254 1063.10712,693.853728 1038.24049,776.250984 C993.607017,806.262969 941.419563,801.076371 891.013116,811.468394" id="Fill-11" fill="#E1C0FE" blush:i="0.0.0.0.0.5"/><path d="M372.576172,639.892258 C421.389737,641.484634 502.008631,609.837582 461.983794,686.677992 C356.639732,698.361174 106.285383,701.148852 79.6953125,680.137325 C50.7107697,616.559922 75.8529014,608.548291 103.837101,602.789065 C166.498272,587.682666 232.119244,599.622305 289.542111,629.750385 C321.59737,637.573218 349.275391,640.953842 372.576172,639.892258 Z" id="Fill-13" fill="#FE7A95" blush:i="0.0.0.0.0.6"/><path d="M567.668699,750.766525 C551.000975,753.485331 553.577553,756.892861 533.777766,745.564238 C504.961529,754.538026 493.498742,730.961438 542.880521,704.71154 C538.162027,700.32819 536.432802,690.849235 545.323719,682.956381 C534.741236,674.969396 468.909692,672.700847 483.708534,642.191538 C486.421628,621.755776 504.78892,650.08753 516.563972,642.191538 C555.065126,652.481586 596.638715,668.700295 640.101584,673.656273 C653.434821,673.453892 693.414134,644.218485 697.344904,672.413749 C702.482367,678.907194 703.973078,687.636242 693.800149,691.727787 C666.692738,702.055487 633.087394,699.920291 621.952564,734.535265 C622.062406,774.510979 593.398379,747.790428 567.668699,750.766525 Z" id="Fill-15" fill="#FCEFC1" blush:i="0.0.0.0.0.7"/><path d="M965.165655,653.463055 C993.998047,632.494425 1074.08562,585.783203 1067.56812,660.943303 C1067.84743,676.631743 1074.92439,698.67557 1059.49945,706.89945 C980.080615,715.411998 901.694299,711.687562 822.095015,710.798028 C837.849481,715.171965 834.722569,672.759836 826.435783,660.943303 C836.4973,665.657679 854.128559,657.113178 893.386015,664.15002 C911.236892,662.623535 926.533203,664.15002 965.165655,653.463055 Z" id="Fill-17" fill="#FE7A95" blush:i="0.0.0.0.0.8"/><path d="M725.680191,743.104134 C725.446385,723.802646 746.294377,728.893545 764.929839,726.731678 C828.48593,732.109675 888.662029,736.198083 953.013689,731.304858 C1024.90992,769.572101 720.916191,762.203241 725.680191,743.104134" id="Fill-19" fill="#FDEEC2" blush:i="0.0.0.0.0.9"/><path d="M132.372321,750.717106 C95.0951198,754.669024 132.113408,709.701249 155.140977,707.713523 C253.843337,706.856934 313.779353,685.16296 300.223294,714.238346 C254.227784,747.996731 153.203053,722.711672 132.372321,750.717106" id="Fill-21" fill="#FDEFC2" blush:i="0.0.0.0.0.10"/><path d="M763.301198,707.036096 C736.110621,702.8112 710.44079,703.821215 703.239869,673.738631 C692.378075,652.780444 822.093889,657.055411 826.435783,661.849799 C816.617486,670.097212 819.730719,703.803609 826.435783,715.855469 C810.136814,714.994173 798.269523,719.919009 763.301198,707.036096" id="Fill-23" fill="#FE7B95" blush:i="0.0.0.0.0.11"/><path d="M891.013116,811.468394 C933.534484,800.444127 1023.7696,806.600271 1044.00719,764.470534 C1077.97815,792.683056 884.614041,835.83411 891.013116,811.468394" id="Fill-25" fill="#D39FFE" blush:i="0.0.0.0.0.12"/><path d="M965.166283,653.462584 C972.269915,665.174004 965.272986,716.131626 946.340951,689.006314 C944.99931,676.902682 943.703176,640.221541 965.166283,653.462584" id="Fill-27" fill="#F24063" blush:i="0.0.0.0.0.13"/><path d="M819.798221,710.451156 C810.874351,700.269359 815.010683,650.668787 835.635853,672.196464 C837.619284,684.141642 842.634351,714.890985 819.798221,710.451156" id="Fill-29" fill="#F23E62" blush:i="0.0.0.0.0.14"/><path d="M300.913258,642.623127 C305.708641,653.678771 302.860598,696.848651 283.417013,675.071528 C281.031874,666.973155 278.048882,621.053091 300.913258,642.623127" id="Fill-31" fill="#F23E62" blush:i="0.0.0.0.0.15"/><path d="M893.301751,673.874343 C898.957039,690.060106 889.713059,720.512937 874.707087,694.890577 C868.447668,679.628862 875.130762,642.963409 893.301751,673.874343" id="Fill-33" fill="#F24063" blush:i="0.0.0.0.0.16"/><path d="M368.587478,650.881051 C370.607,660.388246 372.81953,695.866084 351.32347,677.345881 C343.888743,665.588964 349.410652,629.210609 368.587478,650.881051" id="Fill-35" fill="#F24063" blush:i="0.0.0.0.0.17"/><path d="M763.301198,707.036096 C752.561798,698.520411 749.757692,657.255108 772.468289,673.13024 C777.779929,681.388635 784.332783,712.01247 763.301198,707.036096" id="Fill-37" fill="#F23E62" blush:i="0.0.0.0.0.18"/><path d="M130.766276,796.094036 C173.069529,792.950073 218.820248,793.767441 262.493387,794.346344 C220.828786,796.478403 174.191485,807.124578 130.766276,796.094036" id="Fill-39" fill="#D4A2FE" blush:i="0.0.0.0.0.19"/><path d="M492.899006,671.298928 C501.667527,676.749092 532.019982,670.715318 526.275251,687.563134 C509.577713,684.425446 488.260539,688.783695 467.903697,689.986998 L492.899006,671.298928 Z" id="Fill-41" fill="#D39FFE" blush:i="0.0.0.0.0.20"/><path d="M434.568564,761.087636 C452.985912,751.040759 477.39592,743.703275 499.68441,735.438605 C483.288153,752.976712 444.783861,773.206956 434.568564,761.087636" id="Fill-43" fill="#D39FFE" blush:i="0.0.0.0.0.21"/><path d="M65.65043,697.532667 C55.4178727,710.1901 45.9416553,728.20043 35.7812798,743.065226 C20.6074063,729.613958 52.6263194,707.744273 65.65043,697.532667" id="Fill-45" fill="#D4A2FE" blush:i="0.0.0.0.0.22"/><path d="M557.775239,753.326251 C577.739789,744.24735 582.313919,753.192899 599.034994,757.467999 C599.612449,758.875252 560.511872,766.54533 557.775239,753.326251" id="Fill-47" fill="#775839" blush:i="0.0.0.0.0.23"/><path d="M711.001391,700.377766 C699.838315,708.824422 689.433149,698.488877 674.347149,705.561226 C683.51424,703.758624 700.578964,687.106914 711.001391,700.377766" id="Fill-49" fill="#D4A2FE" blush:i="0.0.0.0.0.24"/><path d="M770.980088,802.959298 C781.849728,799.686689 799.245546,803.630763 812.92557,803.781372 C828.647084,808.30278 781.07142,809.827697 770.980088,802.959298" id="Fill-51" fill="#D4A2FE" blush:i="0.0.0.0.0.25"/><path d="M387.508059,773.045522 C396.78813,766.657189 412.283683,763.563428 426.282249,761.111325 C415.120743,764.768301 402.506185,776.945668 387.508059,773.045522" id="Fill-53" fill="#D4A2FE" blush:i="0.0.0.0.0.26"/><path d="M521.75714,748.245863 C525.294049,748.680433 536.165258,741.796345 539.957942,748.038776 C542.474891,756.579562 523.946132,758.837129 521.75714,748.245863" id="Fill-55" fill="#7A5D3E" blush:i="0.0.0.0.0.27"/><path d="M500.477469,641.233445 C499.212718,635.317334 514.044512,636.719881 516.561461,642.187302 C512.30901,646.322775 509.255406,644.739811 500.477469,641.233445" id="Fill-59" fill="#7A5D3E" blush:i="0.0.0.0.0.28"/><path d="M110.071435,710.610394 C102.137711,712.005096 105.625976,703.051703 107.712972,695.083545 C111.849304,699.749287 113.088949,704.855874 110.071435,710.610394" id="Fill-61" fill="#D4A2FE" blush:i="0.0.0.0.0.29"/><path d="M647.499122,671.718751 C641.752822,675.449462 632.099288,673.420947 622.747035,670.800977 C630.9993,671.106902 639.248426,671.412826 647.499122,671.718751" id="Fill-63" fill="#876C4F" blush:i="0.0.0.0.0.30"/><path d="M1072.09062,821.857436 C1072.46565,817.290531 1072.84069,812.723626 1073.21572,808.156721 C1074.1886,812.833445 1074.92768,817.492912 1072.09062,821.857436" id="Fill-65" fill="#E4DED8" blush:i="0.0.0.0.0.31"/><path d="M792.22508,806.530614 C796.254708,806.747115 800.284337,806.962046 804.313965,807.176978 C800.210586,808.334785 796.105637,809.547501 792.22508,806.530614" id="Fill-67" fill="#E1C0FE" blush:i="0.0.0.0.0.32"/><path d="M364.427138,645.374723 C360.256284,643.788621 356.261177,644.125923 352.448094,646.465069 C355.256909,642.295082 360.788233,641.793052 364.427138,645.374723" id="Fill-69" fill="#FEE2E7" blush:i="0.0.0.0.0.33"/><path d="M546.676029,772.051188 L535.599258,772.096685 L546.676029,772.051188 Z" id="Fill-71" fill="#E4DED8" blush:i="0.0.0.0.0.34"/><path d="M42.6898644,819.228367 C42.6051292,822.080525 42.5219632,824.932684 42.4356589,827.784842 C42.5219632,824.932684 42.6051292,822.080525 42.6898644,819.228367" id="Fill-73" fill="#E4DED8" blush:i="0.0.0.0.0.35"/><path d="M138.524095,816.875101 C135.647807,816.782539 132.771518,816.691546 129.896799,816.597415 C132.771518,816.691546 135.647807,816.782539 138.524095,816.875101" id="Fill-75" fill="#E4DED8" blush:i="0.0.0.0.0.36"/><path d="M598.90083,758.44633 C598.681146,758.008622 600.201672,755.59574 604.090075,757.919198 C602.36085,758.094909 600.631625,758.270619 598.90083,758.44633" id="Fill-77" fill="#E4DED8" blush:i="0.0.0.0.0.37"/><path d="M577.491703,550.482566 C579.787398,550.335094 582.084663,550.189192 584.381928,550.043289 C582.084663,550.189192 579.787398,550.336663 577.491703,550.482566" id="Fill-79" fill="#FEFCF0" blush:i="0.0.0.0.0.38"/><path d="M485.057863,546.215781 C487.050709,546.267552 489.045124,546.319324 491.03797,546.371096 C489.043555,546.319324 487.050709,546.267552 485.057863,546.215781" id="Fill-81" fill="#FEFCF0" blush:i="0.0.0.0.0.39"/><path d="M604.090232,757.919355 C603.82975,757.571072 603.570837,757.225926 603.310355,756.877643 C605.467963,756.551323 607.625572,756.223435 609.781611,755.895546 C607.884485,756.570149 605.987358,757.244752 604.090232,757.919355" id="Fill-83" fill="#775839" blush:i="0.0.0.0.0.40"/><path d="M893.386015,825.393453 C891.641098,825.518961 889.894612,825.644468 888.149695,825.771544 C889.894612,825.644468 891.641098,825.518961 893.386015,825.393453" id="Fill-85" fill="#E4DED8" blush:i="0.0.0.0.0.41"/><path d="M31.4834802,731.978206 C31.518002,733.677264 31.5525237,735.374753 31.5886146,737.070674 C31.5540929,735.373184 31.5195711,733.675695 31.4834802,731.978206" id="Fill-87" fill="#E1BFFE" blush:i="0.0.0.0.0.42"/><path d="M811.164804,539.381269 C812.887753,539.276156 814.609132,539.167906 816.330512,539.064362 C814.607563,539.172612 812.886184,539.277725 811.164804,539.381269" id="Fill-89" fill="#FEFCF0" blush:i="0.0.0.0.0.43"/><path d="M740.998742,544.56269 C742.429825,544.451302 743.860908,544.338345 745.290422,544.228526 C743.859339,544.341483 742.429825,544.452871 740.998742,544.56269" id="Fill-91" fill="#FEFCF0" blush:i="0.0.0.0.0.44"/><path d="M902.742034,712.191475 L907.099619,711.6816 L902.742034,712.191475 Z" id="Fill-93" fill="#FEE2E7" blush:i="0.0.0.0.0.45"/><path d="M604.139975,549.921861 C605.230548,549.906172 606.321121,549.890484 607.411694,549.877933 C606.321121,549.892053 605.230548,549.906172 604.139975,549.921861" id="Fill-95" fill="#FEFCF0" blush:i="0.0.0.0.0.46"/><path d="M414.10957,1031.65659 C415.215834,1031.62992 416.322099,1031.60482 417.428364,1031.57972 C416.322099,1031.60639 415.215834,1031.62992 414.10957,1031.65659" id="Fill-97" fill="#FEFCF0" blush:i="0.0.0.0.0.47"/><path d="M879.621256,662.529404 C878.4789,663.070655 877.338114,663.610338 876.195758,664.15002 C877.338114,663.610338 878.4789,663.070655 879.621256,662.529404" id="Fill-99" fill="#FEE2E7" blush:i="0.0.0.0.0.48"/><path d="M586.061568,760.133151 C586.94501,759.977835 587.828453,759.82252 588.711896,759.665635 C587.828453,759.82252 586.94501,759.977835 586.061568,760.133151" id="Fill-101" fill="#E4DED8" blush:i="0.0.0.0.0.49"/><path d="M795.757281,541.086445 C796.623463,541.015847 797.491214,540.94368 798.357396,540.874651 C797.489645,540.946818 796.623463,541.017416 795.757281,541.086445" id="Fill-103" fill="#FEFCF0" blush:i="0.0.0.0.0.50"/><path d="M829.766373,538.458945 L832.543804,537.825132 C831.616424,538.035357 830.690614,538.247151 829.766373,538.458945" id="Fill-105" fill="#FEFCF0" blush:i="0.0.0.0.0.51"/><path d="M912.99452,825.054897 C912.158152,825.087842 911.323354,825.119219 910.486986,825.152165 C911.323354,825.119219 912.158152,825.087842 912.99452,825.054897" id="Fill-107" fill="#E4DED8" blush:i="0.0.0.0.0.52"/><path d="M920.720799,527.395771 C921.590119,527.263988 922.459439,527.132205 923.328759,527.000422 C922.459439,527.133774 921.590119,527.265557 920.720799,527.395771" id="Fill-109" fill="#FEFCF0" blush:i="0.0.0.0.0.53"/><path d="M290.848445,637.130604 C289.977555,637.389463 289.106666,637.648323 288.235777,637.907182 C289.106666,637.648323 289.977555,637.389463 290.848445,637.130604" id="Fill-111" fill="#FE7A95" blush:i="0.0.0.0.0.54"/><path d="M872.409037,669.446594 C871.831583,669.471696 873.358385,671.580222 871.100349,672.075977 C871.536579,671.198993 871.972808,670.323578 872.409037,669.446594" id="Fill-113" fill="#FEE2E7" blush:i="0.0.0.0.0.55"/><path d="M592.922136,759.333511 L594.710989,758.869133 L592.922136,759.333511 Z" id="Fill-115" fill="#E4DED8" blush:i="0.0.0.0.0.56"/><path d="M375.503909,691.66017 C376.086071,691.677427 376.666664,691.693116 377.247257,691.708804 C376.666664,691.693116 376.086071,691.675859 375.503909,691.66017" id="Fill-117" fill="#FEE2E7" blush:i="0.0.0.0.0.57"/><path d="M574.077503,760.980484 C574.675357,760.826737 575.27321,760.674559 575.872633,760.520812 C575.27321,760.674559 574.675357,760.826737 574.077503,760.980484" id="Fill-119" fill="#E4DED8" blush:i="0.0.0.0.0.58"/><path d="M885.717168,662.936833 L883.997357,662.426959 L885.717168,662.936833 Z" id="Fill-121" fill="#FEE2E7" blush:i="0.0.0.0.0.59"/><path d="M628.898966,549.770154 C629.449745,549.785842 629.998954,549.799962 630.549733,549.814081 C629.998954,549.80153 629.449745,549.785842 628.898966,549.770154" id="Fill-123" fill="#FEFCF0" blush:i="0.0.0.0.0.60"/><path d="M758.942357,543.62358 C759.530796,543.476108 760.119235,543.330206 760.707674,543.185872 C760.119235,543.331775 759.530796,543.477677 758.942357,543.62358" id="Fill-125" fill="#FEFCF0" blush:i="0.0.0.0.0.61"/><path d="M864.239154,535.120602 C864.822885,534.993526 865.405047,534.864881 865.987209,534.739373 C865.405047,534.868018 864.822885,534.995095 864.239154,535.120602" id="Fill-127" fill="#FEFCF0" blush:i="0.0.0.0.0.62"/><path d="M42.613132,845.720965 C42.5974403,846.307712 42.5833178,846.89446 42.5676261,847.479639 C42.5817486,846.89446 42.5974403,846.307712 42.613132,845.720965" id="Fill-129" fill="#E4DED8" blush:i="0.0.0.0.0.63"/><path d="M672.496941,706.904314 C672.192522,706.962361 671.888103,707.020408 671.582115,707.078455 C671.886534,707.020408 672.192522,706.962361 672.496941,706.904314" id="Fill-131" fill="#D4A2FE" blush:i="0.0.0.0.0.64"/><path d="M673.30067,705.556049 C673.041757,705.803926 672.784413,706.050235 672.5255,706.299681 C672.784413,706.050235 673.041757,705.803926 673.30067,705.556049" id="Fill-133" fill="#D4A2FE" blush:i="0.0.0.0.0.65"/><path d="M865.262723,825.341367 C864.925352,825.449618 864.58798,825.559437 864.250609,825.666118 C864.58798,825.557868 864.925352,825.449618 865.262723,825.341367" id="Fill-135" fill="#E4DED8" blush:i="0.0.0.0.0.66"/><path d="M267.738494,511.46369 C268.028791,511.650382 268.319087,511.837075 268.609383,512.023767 C268.319087,511.837075 268.028791,511.650382 267.738494,511.46369" id="Fill-137" fill="#FEFCF0" blush:i="0.0.0.0.0.67"/><path d="M539.396493,69.8839929 C595.306019,84.8931234 514.225438,156.888943 488.721718,158.114211 C417.666564,150.905372 502.38605,67.1667551 539.396493,69.8839929" id="Fill-139" fill="#FDEFC0" blush:i="0.0.0.0.0.68"/><path d="M584.255767,150.777512 C593.353814,57.1834163 646.090478,79.7590814 642.027897,105.593236 C654.6707,196.23006 588.254012,224.020563 584.255767,150.777512" id="Fill-141" fill="#FDEFC0" blush:i="0.0.0.0.0.69"/><path d="M750.335617,125.868191 C738.336174,189.593065 667.216684,120.028954 676.702317,82.9979599 C692.710989,27.9456551 751.545447,97.0030303 750.335617,125.868191" id="Fill-143" fill="#FDEFC0" blush:i="0.0.0.0.0.70"/><path d="M536.496353,706.804692 C533.384689,709.570564 532.314515,716.983352 519.342187,718.420413 C517.070029,709.217574 527.431258,701.327858 527.020136,690.804052 C533.100669,691.2951 539.466792,697.030794 536.496353,706.804692" id="Fill-145" fill="#D39FFE" blush:i="0.0.0.0.0.71"/><path d="M919.789183,759.302762 C921.267341,759.600842 949.964321,754.765665 938.17044,759.349827 C905.980487,776.820474 846.363013,781.718405 814.654795,772.283377 C848.566127,769.859513 884.445198,766.544546 919.789183,759.302762" id="Fill-147" fill="#D39FFE" blush:i="0.0.0.0.0.72"/><path d="M194.310755,643.18995 C204.314213,677.301325 173.94136,687.720018 174.427802,647.240706 C169.547684,612.390405 200.190435,612.84537 194.310755,643.18995" id="Fill-149" fill="#F23E62" blush:i="0.0.0.0.0.73"/><path d="M137.305792,633.324902 C145.344649,669.885243 115.640262,674.445873 117.003871,634.896884 C112.275962,607.125208 141.848539,604.17735 137.305792,633.324902" id="Fill-151" fill="#F23E62" blush:i="0.0.0.0.0.74"/><path d="M256.566632,666.883574 C243.478185,698.036109 224.009493,647.070643 236.636604,631.622236 C255.695742,621.90011 253.426723,652.511394 256.566632,666.883574" id="Fill-153" fill="#F23E62" blush:i="0.0.0.0.0.75"/><path d="M412.274582,661.83221 C416.657274,632.176352 439.054037,649.893307 434.134689,676.526003 C424.495278,694.903441 411.510396,678.934178 412.274582,661.83221" id="Fill-155" fill="#F23E62" blush:i="0.0.0.0.0.76"/><path d="M539.890625,689.100131 C538.108047,686.113052 536.32547,683.122835 534.544462,680.137325 C536.521617,681.050392 538.602336,679.95377 545.323091,682.956537 C543.477747,685.0431 541.684186,687.071615 539.890625,689.100131" id="Fill-157" fill="#7A5D3E" blush:i="0.0.0.0.0.77"/><path d="M537.373676,703.489411 C537.9527,702.485351 538.531723,701.482859 539.112316,700.478799 C540.246826,701.752701 541.379767,703.026602 542.879893,704.71154 C540.323715,705.550872 538.410897,706.179978 536.498079,706.805947 C536.788375,705.698343 537.080241,704.593877 537.373676,703.489411" id="Fill-159" fill="#876C4F" blush:i="0.0.0.0.0.78"/><path d="M1027.53388,667.170045 C1028.62916,655.609233 1037.37258,614.34393 1052.96385,641.682605 C1054.08581,654.460839 1041.12917,706.050706 1027.53388,667.170045" id="Fill-161" fill="#F23E62" blush:i="0.0.0.0.0.79"/><path d="M253.133288,731.0973 C220.8586,739.980095 183.378975,736.166235 147.843553,739.671032 C180.541916,734.049864 217.238525,735.510458 253.133288,731.0973" id="Fill-163" fill="#E8CDF7" blush:i="0.0.0.0.0.80"/><path d="M258.235287,730.291385 C257.395781,730.540831 256.554706,730.790277 255.7152,731.041292 C256.556275,730.790277 257.395781,730.540831 258.235287,730.291385" id="Fill-165" fill="#E8CDF7" blush:i="0.0.0.0.0.81"/></g><g id="Outline" fill="#000" blush:i="0.0.0.0.1"><path d="M996.595649,751.805915 C1009.08548,758.633803 1036.43603,757.83855 1054.8554,762.192838 C1046.90646,743.106749 1015.61754,754.737531 996.595649,751.805915 M661.328303,750.905568 C680.223101,748.16061 699.638832,743.158511 721.030029,739.748488 C747.352827,709.42689 665.582064,732.037506 661.328303,750.905568 M811.027451,795.496246 C792.10284,795.893089 760.165892,773.593044 755.508878,805.262025 C774.948146,807.671314 793.334564,809.948846 811.832386,812.240494 C811.538969,806.132569 811.287917,800.90303 811.027451,795.496246 M838.754571,814.770562 C857.283775,816.052065 875.448954,817.310041 894.395532,818.621347 C887.828954,788.291906 860.774967,799.662309 836.204825,797.687507 C837.012898,803.100566 837.833524,808.595189 838.754571,814.770562 M971.162516,815.568952 C956.075862,782.138493 944.968381,796.893822 913.775175,797.678096 C918.016384,830.211346 946.823028,813.747868 971.162516,815.568952 M126.837101,723.451276 C106.208475,711.152292 59.4061125,742.449527 60.7257044,765.762853 C128.456386,739.580653 105.896229,757.162506 126.837101,723.451276 M1056.94854,789.424397 C1044.36142,787.644096 956.463423,762.280677 989.392026,797.201257 C997.908964,825.298655 1041.86973,800.347764 1056.94854,789.424397 M666.685124,776.314475 C688.062199,789.537333 734.35775,816.873984 737.958777,780.751896 C730.679839,752.667048 689.438277,774.198504 666.685124,776.314475 M75.2898565,787.879378 C91.2159655,802.418247 120.711433,806.229819 143.607372,808.160701 C153.952282,744.945087 112.098782,775.330995 75.2898565,787.879378 M403.055456,784.826984 C357.15845,739.775153 367.085986,738.81677 331.474265,750.867923 C363.368848,806.002379 350.808404,791.364691 403.055456,784.826984 M235.980374,807.272903 C229.117241,795.886814 234.954199,770.263017 215.828746,776.239184 C168.706293,781.153445 174.334564,771.044154 165.988655,810.155894 C189.767983,809.17712 212.401887,808.243834 235.980374,807.272903 M505.891048,756.740566 C555.40791,738.310129 571.221045,705.734528 510.599841,701.143388 C506.597132,713.227481 500.604835,722.23722 487.295943,727.030702 C493.641281,736.692956 506.468467,741.784463 505.891048,756.740566 M251.900206,770.954747 C258.152969,825.653146 292.05283,796.44208 329.134774,796.369927 C300.538386,738.173666 300.219864,764.180189 251.900206,770.954747 M296.030434,734.082893 C259.922886,729.151378 209.695233,731.673603 168.751796,728.439258 C73.5387691,773.407955 281.480404,744.81176 296.030434,734.082893 M485.82572,763.383366 C452.354216,713.360808 431.987626,736.068674 388.150815,733.504099 C446.426252,790.525518 419.775517,783.352549 485.82572,763.383366 M865.709707,773.180516 C885.593023,772.124883 986.675958,773.207181 966.809902,753.512495 C793.383205,756.608808 729.666216,734.522086 752.918336,755.830808 C788.034229,772.099787 826.884521,769.565013 865.709707,773.180516 M711.71757,698.798409 C573.810019,705.828641 594.593983,675.161962 512.966006,659.112581 C510.290734,681.914561 525.802607,673.136967 543.939542,681.32165 C588.391431,702.732327 583.753246,740.284931 548.121126,763.773935 L632.402409,763.773935 C632.487139,723.233248 675.592761,703.847565 711.71757,698.798409 M735.536125,688.34247 C741.588047,701.948054 742.504386,720.099289 762.927464,719.950277 C867.678896,730.054862 972.689225,731.20147 1080.26028,723.344614 C1099.68386,721.231781 1092.57595,627.848286 1065.53295,645.541505 C1044.88549,647.431605 1025.1889,652.019608 1006.77424,661.567358 C921.592305,725.622146 826.757426,660.358008 735.536125,688.34247 M419.750412,708.034019 C476.441083,701.916683 498.003309,713.20709 484.024422,658.350267 C443.402645,658.839654 405.688363,672.415435 363.966665,667.860372 C314.311725,665.231486 277.524767,636.705875 229.934729,624.73315 C185.73703,613.472545 97.6319123,628.885096 97.8417927,638.995955 C102.693748,670.457887 93.7892482,691.948561 130.833535,698.056486 C227.011542,711.644816 323.181704,706.352536 419.750412,708.034019 M755.31902,1043.04133 C935.870886,1030.10081 1101.07249,1027.71505 1120.51176,961.492525 C1127.39529,939.644223 1119.19374,928.713013 1095.95731,922.087467 C1058.13162,933.994313 1013.16508,949.739397 967.906685,948.845324 C763.947362,960.171808 560.406982,962.700307 355.352445,955.756346 C-1.15546667,949.461764 98.7538008,895.56646 42.6436867,918.544117 C-70.0974743,1083.8471 701.799448,1046.98936 755.31902,1043.04133 M1117.81138,618.164071 C1258.4962,623.859468 1223.97027,553.096002 1131.13126,505.594099 C966.773813,587.205643 832.180148,581.496129 679.940668,590.312936 C104.462095,596.455369 148.41031,424.846826 48.0601328,520.492167 C8.4582545,552.824643 20.9214155,631.506139 81.3527615,612.112614 C203.175727,584.790079 225.105116,591.65875 298.534678,623.282243 C346.634665,647.866093 397.149459,645.756396 449.203514,635.818077 C553.038607,620.932558 580.670014,664.887974 628.528363,671.944871 C691.820133,685.696329 751.253547,647.864524 816.155187,655.812356 C1032.9213,689.495352 955.97701,608.867288 1117.81138,618.164071 M1084.17042,790.607082 C1049.3448,882.225961 729.57521,829.812935 690.202417,816.836339 C672.54248,811.606801 658.190153,803.724848 644.360328,789.935744 C620.664161,787.015108 593.726285,790.687078 567.219905,789.673796 C399.438739,787.041773 226.09991,874.789476 68.9115676,815.663065 C35.1952887,944.089487 212.539966,919.091541 290.761481,927.367199 C406.176346,931.097206 517.958802,936.408309 633.971484,934.249987 C1087.90168,925.287304 1071.63194,923.154079 1090.31492,858.343252 C1094.78678,832.639458 1102.48309,793.860251 1084.17042,790.607082 M600.0779,566.356505 C707.829403,567.365081 1137.54564,552.410546 1124.42503,448.453471 C1094.21877,216.27859 917.475053,32.2659699 690.506817,26.0639318 C376.33882,20.3277524 184.834812,193.511118 90.4345663,447.299019 C238.815692,540.075486 426.497433,559.169419 600.0779,566.356505 M76.1308806,471.507987 C31.8547285,436.243894 176.258249,232.240132 188.597453,219.536464 C355.961246,0.763255373 719.198919,-66.5650916 926.156744,73.7462172 C1052.12207,149.911763 1167.107,364.002856 1148.33459,486.655453 C1286.3457,557.167952 1258.35812,656.292332 1109.00573,643.634151 C1114.90232,681.158521 1130.67623,744.267474 1077.687,749.948754 C1080.90047,765.605999 1100.56725,768.372917 1113.44779,778.962183 C1132.69876,813.787082 1113.26577,871.693162 1104.17455,897.469109 C1142.70946,910.124153 1155.86615,934.458604 1144.35071,970.158752 C1124.62117,1088.61392 624.351486,1066.21819 566.995527,1074.42169 C95.5717171,1076.00907 -21.3416137,1023.0345 12.5409871,914.826659 C18.5160238,902.516696 28.4200238,895.442545 43.2775929,890.765135 C51.4085384,888.981696 38.07611,865.607197 40.3481303,856.192773 C38.9673445,835.265208 43.7765587,819.339741 46.2604041,797.130673 C17.7989567,755.300639 48.882328,721.106297 85.1295245,702.500182 C70.6987437,684.937152 79.4777171,654.192046 69.5454738,639.777092 C-42.0424172,637.381919 -3.96881774,494.959345 76.1308806,471.507987" id="Fill-168" blush:i="0.0.0.0.1.0"/></g></g></g></g></g></svg>